<?xml version="1.0" encoding="UTF-8" standalone="no"?>
<!-- Created with Inkscape (http://www.inkscape.org/) -->

<svg
   xmlns:dc="http://purl.org/dc/elements/1.1/"
   xmlns:cc="http://creativecommons.org/ns#"
   xmlns:rdf="http://www.w3.org/1999/02/22-rdf-syntax-ns#"
   xmlns:svg="http://www.w3.org/2000/svg"
   xmlns="http://www.w3.org/2000/svg"
   xmlns:sodipodi="http://sodipodi.sourceforge.net/DTD/sodipodi-0.dtd"
   xmlns:inkscape="http://www.inkscape.org/namespaces/inkscape"
   width="50"
   height="50"
   id="svg5241"
   version="1.1"
   inkscape:version="0.48.4 r9939"
   sodipodi:docname="Zeichnung.svg">
  <defs
     id="defs5243">
    <inkscape:path-effect
       effect="spiro"
       id="path-effect6491"
       is_visible="true" />
    <inkscape:path-effect
       effect="spiro"
       id="path-effect6487"
       is_visible="true" />
  </defs>
  <sodipodi:namedview
     id="base"
     pagecolor="#ffffff"
     bordercolor="#666666"
     borderopacity="1.0"
     inkscape:pageopacity="0.0"
     inkscape:pageshadow="2"
     inkscape:zoom="7.9180417"
     inkscape:cx="23.701263"
     inkscape:cy="-4.2938816"
     inkscape:current-layer="layer1"
     showgrid="true"
     inkscape:grid-bbox="true"
     inkscape:document-units="px"
     inkscape:window-width="1251"
     inkscape:window-height="915"
     inkscape:window-x="0"
     inkscape:window-y="25"
     inkscape:window-maximized="0" />
  <metadata
     id="metadata5246">
    <rdf:RDF>
      <cc:Work
         rdf:about="">
        <dc:format>image/svg+xml</dc:format>
        <dc:type
           rdf:resource="http://purl.org/dc/dcmitype/StillImage" />
      </cc:Work>
    </rdf:RDF>
  </metadata>
  <g
     id="layer1"
     inkscape:label="Layer 1"
     inkscape:groupmode="layer"
     transform="translate(0,18)">
    <path
       sodipodi:type="arc"
       style="color:#000000;fill:#d9d9d9;fill-opacity:1;fill-rule:nonzero;stroke:none;stroke-width:1;marker:none;visibility:visible;display:inline;overflow:visible;enable-background:accumulate"
       id="path6495"
       sodipodi:cx="5.051754"
       sodipodi:cy="39.893364"
       sodipodi:rx="3.7256687"
       sodipodi:ry="3.7256687"
       d="m 8.7774227,39.893364 a 3.7256687,3.7256687 0 1 1 -7.4513374,0 l 3.7256687,0 z"
       sodipodi:start="0"
       sodipodi:end="3.1415927"
       transform="matrix(1.8625588,0,0,-2.5323173,22.757984,133.02266)" />
    <path
       sodipodi:type="arc"
       style="color:#000000;fill:#d9d9d9;fill-opacity:1;fill-rule:nonzero;stroke:none;stroke-width:1;marker:none;visibility:visible;display:inline;overflow:visible;enable-background:accumulate"
       id="path6495-5"
       sodipodi:cx="5.051754"
       sodipodi:cy="39.893364"
       sodipodi:rx="3.7256687"
       sodipodi:ry="3.7256687"
       d="m 8.7774227,39.893364 a 3.7256687,3.7256687 0 1 1 -7.4513374,0 l 3.7256687,0 z"
       sodipodi:start="0"
       sodipodi:end="3.1415927"
       transform="matrix(2.0994159,0,0,-3.2908275,11.388664,159.28218)" />
    <path
       sodipodi:type="arc"
       style="color:#000000;fill:#d9d9d9;fill-opacity:1;fill-rule:nonzero;stroke:none;stroke-width:1;marker:none;visibility:visible;display:inline;overflow:visible;enable-background:accumulate"
       id="path6495-8"
       sodipodi:cx="5.051754"
       sodipodi:cy="39.893364"
       sodipodi:rx="3.7256687"
       sodipodi:ry="3.7256687"
       d="m 8.7774227,39.893364 a 3.7256687,3.7256687 0 1 1 -7.4513374,0 l 3.7256687,0 z"
       sodipodi:start="0"
       sodipodi:end="3.1415927"
       transform="matrix(1.8136531,0,0,-2.0769991,7.1458954,114.85848)" />
    <g
       id="g6844"
       transform="translate(0,-0.17039974)">
      <path
         transform="matrix(2.0947772,-2.1667538,2.0947772,2.1667538,-26.945771,-31.740817)"
         sodipodi:open="true"
         sodipodi:end="1.5707963"
         sodipodi:start="0"
         d="m 10.180569,19.89941 c 0,2.441381 -1.9791296,4.42051 -4.42051,4.420511"
         sodipodi:ry="4.4205103"
         sodipodi:rx="4.4205103"
         sodipodi:cy="19.89941"
         sodipodi:cx="5.7600589"
         id="path6025-5-3"
         style="fill:none;stroke:#323232;stroke-width:1.12199664;stroke-miterlimit:4;stroke-opacity:1;stroke-dasharray:none"
         sodipodi:type="arc" />
      <path
         transform="matrix(2.0947772,-2.1667538,2.0947772,2.1667538,-26.945771,-31.740817)"
         sodipodi:open="true"
         sodipodi:end="1.5707963"
         sodipodi:start="0"
         d="m 10.180569,19.89941 c 0,2.441381 -1.9791296,4.42051 -4.42051,4.420511"
         sodipodi:ry="4.4205103"
         sodipodi:rx="4.4205103"
         sodipodi:cy="19.89941"
         sodipodi:cx="5.7600589"
         id="path6025-5"
         style="fill:none;stroke:#ffffff;stroke-width:0.56099832;stroke-miterlimit:4;stroke-opacity:1;stroke-dasharray:none"
         sodipodi:type="arc" />
      <g
         transform="matrix(1.6902475,0,0,1.6902475,-4.1549963,-18.363113)"
         id="g6540">
        <path
           sodipodi:type="star"
           style="fill:#323232;fill-opacity:1;fill-rule:nonzero;stroke:none"
           id="path6021-7"
           sodipodi:sides="3"
           sodipodi:cx="-17.428553"
           sodipodi:cy="11.03522"
           sodipodi:r1="31.888136"
           sodipodi:r2="15.944068"
           sodipodi:arg1="0.52359878"
           sodipodi:arg2="1.5707963"
           inkscape:flatsided="true"
           inkscape:rounded="-0.002"
           inkscape:randomized="0"
           d="m 10.187383,26.979288 c 0.05523,-0.09566 -55.287103,-0.09566 -55.231871,0 0.05523,0.09566 27.726399,-47.832204 27.615936,-47.832204 -0.110464,0 27.560703,47.927869 27.615935,47.832204 z"
           inkscape:transform-center-y="-4.9401025"
           transform="matrix(0.07192739,0,0,0.61968465,17.25359,13.178369)" />
        <path
           sodipodi:type="star"
           style="fill:#ffffff;fill-opacity:1;fill-rule:nonzero;stroke:none"
           id="path6021"
           sodipodi:sides="3"
           sodipodi:cx="-17.428553"
           sodipodi:cy="11.03522"
           sodipodi:r1="31.888136"
           sodipodi:r2="15.944068"
           sodipodi:arg1="0.52359878"
           sodipodi:arg2="1.5707963"
           inkscape:flatsided="true"
           inkscape:rounded="-0.002"
           inkscape:randomized="0"
           d="m 10.187383,26.979288 c 0.05523,-0.09566 -55.287103,-0.09566 -55.231871,0 0.05523,0.09566 27.726399,-47.832204 27.615936,-47.832204 -0.110464,0 27.560703,47.927869 27.615935,47.832204 z"
           inkscape:transform-center-y="-4.330747"
           transform="matrix(0.04730651,0,0,0.54324736,16.824484,14.779113)" />
        <g
           id="g6450"
           transform="matrix(0.92151572,0,0,0.92151572,1.2424634,1.2419148)">
          <path
             transform="matrix(0.62912727,0,0,0.62912727,4.8620709,3.8328029)"
             id="path6023"
             d="m 23.218842,9.8081446 c 0,3.0332304 -2.458919,5.4921494 -5.49215,5.4921494 -3.03323,0 -5.492149,-2.458919 -5.492149,-5.4921494 0,-3.0332304 2.458919,-5.4921494 5.492149,-5.4921494 3.033231,0 5.49215,2.458919 5.49215,5.4921494 z"
             style="color:#000000;fill:#f3841a;fill-opacity:1;fill-rule:nonzero;stroke:none;marker:none;visibility:visible;display:inline;overflow:visible;enable-background:accumulate"
             inkscape:connector-curvature="0" />
          <path
             id="path6023-8"
             d="m 18.100993,9.6295383 c 0,1.3410987 -1.087175,2.4282737 -2.428275,2.4282737 -1.341098,0 -2.428273,-1.087175 -2.428273,-2.4282737 0,-1.341099 1.087175,-2.428274 2.428273,-2.428274 1.3411,0 2.428275,1.087175 2.428275,2.428274 z"
             style="color:#000000;fill:#f6a555;fill-opacity:1;fill-rule:nonzero;stroke:none;marker:none;visibility:visible;display:inline;overflow:visible;enable-background:accumulate"
             inkscape:connector-curvature="0" />
          <path
             id="path6023-8-9"
             d="m 17.341916,9.450932 c 0,0.971193 -0.787307,1.7585 -1.758501,1.7585 -0.971192,0 -1.758499,-0.787307 -1.758499,-1.7585 0,-0.971193 0.787307,-1.7584999 1.758499,-1.7584999 0.971194,0 1.758501,0.7873069 1.758501,1.7584999 z"
             style="color:#000000;fill:#f9c795;fill-opacity:1;fill-rule:nonzero;stroke:none;marker:none;visibility:visible;display:inline;overflow:visible;enable-background:accumulate"
             inkscape:connector-curvature="0" />
          <path
             id="path6023-8-9-1"
             d="m 16.672141,9.3616285 c 0,0.601286 -0.487439,1.0887255 -1.088726,1.0887255 -0.601286,0 -1.088725,-0.4874395 -1.088725,-1.0887255 0,-0.601287 0.487439,-1.088726 1.088725,-1.088726 0.601287,0 1.088726,0.487439 1.088726,1.088726 z"
             style="color:#000000;fill:#fce1c6;fill-opacity:1;fill-rule:nonzero;stroke:none;marker:none;visibility:visible;display:inline;overflow:visible;enable-background:accumulate"
             inkscape:connector-curvature="0" />
          <path
             id="path6023-8-9-1-3"
             d="m 16.002367,9.1830216 c 0,0.305362 -0.247544,0.552907 -0.552906,0.552907 -0.305362,0 -0.552906,-0.247545 -0.552906,-0.552907 0,-0.305362 0.247544,-0.552906 0.552906,-0.552906 0.305362,0 0.552906,0.247544 0.552906,0.552906 z"
             style="color:#000000;fill:#ffffff;fill-opacity:1;fill-rule:nonzero;stroke:none;marker:none;visibility:visible;display:inline;overflow:visible;enable-background:accumulate"
             inkscape:connector-curvature="0" />
        </g>
      </g>
      <path
         transform="matrix(1.2622354,-1.3056059,1.2622354,1.3056059,-7.2783308,-19.564743)"
         sodipodi:open="true"
         sodipodi:end="1.5707963"
         sodipodi:start="0"
         d="m 10.180569,19.89941 c 0,2.441381 -1.9791296,4.42051 -4.42051,4.420511"
         sodipodi:ry="4.4205103"
         sodipodi:rx="4.4205103"
         sodipodi:cy="19.89941"
         sodipodi:cx="5.7600589"
         id="path6025-5-3-4"
         style="fill:none;stroke:#323232;stroke-width:1.86204016;stroke-miterlimit:4;stroke-opacity:1;stroke-dasharray:none"
         sodipodi:type="arc" />
      <path
         transform="matrix(1.2622354,-1.3056059,1.2622354,1.3056059,-7.2783308,-19.564743)"
         sodipodi:open="true"
         sodipodi:end="1.5707963"
         sodipodi:start="0"
         d="m 10.180569,19.89941 c 0,2.441381 -1.9791296,4.42051 -4.42051,4.420511"
         sodipodi:ry="4.4205103"
         sodipodi:rx="4.4205103"
         sodipodi:cy="19.89941"
         sodipodi:cx="5.7600589"
         id="path6025-5-5"
         style="fill:none;stroke:#ffffff;stroke-width:0.93102008;stroke-miterlimit:4;stroke-opacity:1;stroke-dasharray:none"
         sodipodi:type="arc" />
      <path
         transform="matrix(-2.0947772,-2.1667538,-2.0947772,2.1667538,72.576642,-31.740817)"
         sodipodi:open="true"
         sodipodi:end="1.5707963"
         sodipodi:start="0"
         d="m 10.180569,19.89941 c 0,2.441381 -1.9791296,4.42051 -4.42051,4.420511"
         sodipodi:ry="4.4205103"
         sodipodi:rx="4.4205103"
         sodipodi:cy="19.89941"
         sodipodi:cx="5.7600589"
         id="path6025-5-3-7"
         style="fill:none;stroke:#323232;stroke-width:1.12199664;stroke-miterlimit:4;stroke-opacity:1;stroke-dasharray:none"
         sodipodi:type="arc" />
      <path
         transform="matrix(-2.0947772,-2.1667538,-2.0947772,2.1667538,72.576642,-31.740817)"
         sodipodi:open="true"
         sodipodi:end="1.5707963"
         sodipodi:start="0"
         d="m 10.180569,19.89941 c 0,2.441381 -1.9791296,4.42051 -4.42051,4.420511"
         sodipodi:ry="4.4205103"
         sodipodi:rx="4.4205103"
         sodipodi:cy="19.89941"
         sodipodi:cx="5.7600589"
         id="path6025-5-9"
         style="fill:none;stroke:#ffffff;stroke-width:0.56099832;stroke-miterlimit:4;stroke-opacity:1;stroke-dasharray:none"
         sodipodi:type="arc" />
      <path
         transform="matrix(-1.2622354,-1.3056059,-1.2622354,1.3056059,52.909204,-19.564743)"
         sodipodi:open="true"
         sodipodi:end="1.5707963"
         sodipodi:start="0"
         d="m 10.180569,19.89941 c 0,2.441381 -1.9791296,4.42051 -4.42051,4.420511"
         sodipodi:ry="4.4205103"
         sodipodi:rx="4.4205103"
         sodipodi:cy="19.89941"
         sodipodi:cx="5.7600589"
         id="path6025-5-3-4-0"
         style="fill:none;stroke:#323232;stroke-width:1.86204016;stroke-miterlimit:4;stroke-opacity:1;stroke-dasharray:none"
         sodipodi:type="arc" />
      <path
         transform="matrix(-1.2622354,-1.3056059,-1.2622354,1.3056059,52.909204,-19.564743)"
         sodipodi:open="true"
         sodipodi:end="1.5707963"
         sodipodi:start="0"
         d="m 10.180569,19.89941 c 0,2.441381 -1.9791296,4.42051 -4.42051,4.420511"
         sodipodi:ry="4.4205103"
         sodipodi:rx="4.4205103"
         sodipodi:cy="19.89941"
         sodipodi:cx="5.7600589"
         id="path6025-5-5-1"
         style="fill:none;stroke:#ffffff;stroke-width:0.93102008;stroke-miterlimit:4;stroke-opacity:1;stroke-dasharray:none"
         sodipodi:type="arc" />
    </g>
  </g>
</svg>
