<?xml version="1.0" encoding="UTF-8" standalone="no"?>
<!-- Created with Inkscape (http://www.inkscape.org/) -->

<svg
   xmlns:dc="http://purl.org/dc/elements/1.1/"
   xmlns:cc="http://creativecommons.org/ns#"
   xmlns:rdf="http://www.w3.org/1999/02/22-rdf-syntax-ns#"
   xmlns:svg="http://www.w3.org/2000/svg"
   xmlns="http://www.w3.org/2000/svg"
   xmlns:sodipodi="http://sodipodi.sourceforge.net/DTD/sodipodi-0.dtd"
   xmlns:inkscape="http://www.inkscape.org/namespaces/inkscape"
   width="64px"
   height="64px"
   id="svg4110"
   version="1.1"
   inkscape:version="0.48.4 r9939"
   sodipodi:docname="edit.svg">
  <defs
     id="defs4112" />
  <sodipodi:namedview
     id="base"
     pagecolor="#ffffff"
     bordercolor="#666666"
     borderopacity="1.0"
     inkscape:pageopacity="0.0"
     inkscape:pageshadow="2"
     inkscape:zoom="5.5"
     inkscape:cx="29.454546"
     inkscape:cy="39.051876"
     inkscape:current-layer="layer1"
     showgrid="true"
     inkscape:document-units="px"
     inkscape:grid-bbox="true"
     inkscape:window-width="1440"
     inkscape:window-height="825"
     inkscape:window-x="0"
     inkscape:window-y="25"
     inkscape:window-maximized="1" />
  <metadata
     id="metadata4115">
    <rdf:RDF>
      <cc:Work
         rdf:about="">
        <dc:format>image/svg+xml</dc:format>
        <dc:type
           rdf:resource="http://purl.org/dc/dcmitype/StillImage" />
        <dc:title />
      </cc:Work>
    </rdf:RDF>
  </metadata>
  <g
     id="layer1"
     inkscape:label="Layer 1"
     inkscape:groupmode="layer">
    <g
       id="g8810"
       transform="matrix(1.1441202,0,0,1.1441202,-109.33102,-0.47798096)">
      <path
         inkscape:connector-curvature="0"
         id="path8800"
         d="m 103.65033,36.117949 c 0.25178,-0.296209 6.83793,-8.271395 14.63673,-17.721932 7.80939,-9.463409 14.33076,-17.1967894 14.51604,-17.2139396 0.18505,-0.017116 1.89799,-0.25490456 3.22381,-0.1399626 2.34027,0.2028972 3.98969,-0.0950622 3.82224,0.1943366 -0.0451,0.077937 -7.5074,9.0471746 -15.80605,18.7662976 l -13.65817,18.465716 -4.31098,-1.302994 -2.88075,-0.508421 0.45712,-0.539133 z"
         style="fill:#f3841a;fill-opacity:1;fill-rule:nonzero;stroke:none"
         sodipodi:nodetypes="cscscsccccc" />
      <path
         inkscape:connector-curvature="0"
         id="path8808"
         d="m 100.24586,52.247409 0.55795,-3.220869 1.23595,0.299198 c 1.39677,0.33814 3.43165,1.648259 3.95074,2.54362 l 0.32809,0.565931 -3.0746,1.489439 c -1.69104,0.819191 -3.18294,1.501612 -3.315348,1.516494 -0.132439,0.01486 0.01034,-1.422336 0.317218,-3.193813 l 0,0 z"
         style="fill:#302715;fill-opacity:1;fill-rule:nonzero;stroke:none" />
      <path
         inkscape:connector-curvature="0"
         id="path8806"
         d="m 102.01997,42.507954 c 0.57512,-3.18422 1.09963,-5.856598 1.16559,-5.938619 0.17367,-0.215993 5.99092,0.307031 7.85982,0.888075 2.19171,0.681406 5.16384,3.680965 6.232,5.348876 0.76003,1.186777 -0.59117,1.441253 -0.14043,3.232263 l 0.27474,1.091692 -5.1953,2.453246 c -2.85742,1.349292 -5.28181,2.46362 -5.38752,2.476301 -0.10577,0.01264 -0.3858,-0.291617 -0.62236,-0.676209 -0.65209,-1.060077 -1.76526,-1.863727 -3.30548,-2.386387 -0.75295,-0.255509 -1.49449,-0.517477 -1.64786,-0.582151 -0.20184,-0.08511 0.01,-1.716606 0.7668,-5.907087 z"
         style="fill:#f1d0ad;fill-opacity:1;fill-rule:nonzero;stroke:none"
         sodipodi:nodetypes="ccssscsccscc" />
      <path
         inkscape:connector-curvature="0"
         id="path8804"
         d="m 114.89683,40.673903 c -0.8721,-0.905785 -2.86097,-2.316798 -4.20879,-2.985938 -0.63203,-0.313778 -1.04662,-0.627629 -1.00218,-0.758656 0.0638,-0.187977 30.11823,-34.8721085 30.3943,-35.0763022 0.30879,-0.2284294 4.31129,2.2818017 5.48694,3.441204 0.36269,0.3576817 -0.57807,1.5208098 -14.65804,18.1227822 -8.27508,9.757318 -15.11382,17.786791 -15.19717,17.843296 -0.0834,0.05649 -0.45013,-0.207364 -0.81505,-0.586368 l 0,0 z"
         style="fill:#302715;fill-opacity:1;fill-rule:nonzero;stroke:none" />
      <path
         inkscape:connector-curvature="0"
         id="path8802"
         d="m 117.18869,46.155421 c -0.1708,-0.540317 -0.76423,-1.777619 -1.31873,-2.749558 l -1.00817,-1.767157 2.33187,-2.767405 C 129.32701,24.471317 145.38143,5.69164 145.52462,5.7311713 c 0.34022,0.093922 1.72417,2.7831659 2.16716,4.2111005 l 0.44505,1.4346482 -15.18262,17.912524 c -8.35043,9.851892 -15.24389,17.898094 -15.31878,17.880458 -0.0748,-0.01752 -0.27589,-0.474135 -0.4467,-1.01445 l 0,0 z"
         style="fill:#f3841a;fill-opacity:1;fill-rule:nonzero;stroke:none" />
      <path
         sodipodi:nodetypes="cccccc"
         inkscape:connector-curvature="0"
         id="path8790"
         d="M 132.03847,1.8712635 102.82519,36.517192 99.419419,55.85595 117.73235,47.265624 147.59976,11.655912 C 146.46335,1.7831203 138.35179,-0.70496175 132.03847,1.8712635 z"
         style="fill:none;stroke:#000000;stroke-width:1px;stroke-linecap:butt;stroke-linejoin:miter;stroke-opacity:1" />
      <path
         sodipodi:nodetypes="cc"
         inkscape:connector-curvature="0"
         id="path8792"
         d="M 140.41675,1.4073718 109.69802,37.243251"
         style="fill:none;stroke:#000000;stroke-width:1px;stroke-linecap:butt;stroke-linejoin:miter;stroke-opacity:1" />
      <path
         sodipodi:nodetypes="cc"
         inkscape:connector-curvature="0"
         id="path8794"
         d="M 145.61816,5.2841151 115.50142,41.191108"
         style="fill:none;stroke:#000000;stroke-width:1px;stroke-linecap:butt;stroke-linejoin:miter;stroke-opacity:1" />
      <path
         sodipodi:nodetypes="cc"
         inkscape:connector-curvature="0"
         id="path8796"
         d="m 102.85673,36.33813 c 7.00639,-0.222602 13.02189,1.279442 14.51749,10.864427"
         style="fill:none;stroke:#000000;stroke-width:1px;stroke-linecap:butt;stroke-linejoin:miter;stroke-opacity:1" />
      <path
         sodipodi:nodetypes="cc"
         inkscape:connector-curvature="0"
         id="path8798"
         d="m 100.68082,48.693446 c 2.15835,0.650439 4.53665,0.678053 5.76263,3.968722"
         style="fill:none;stroke:#000000;stroke-width:1px;stroke-linecap:butt;stroke-linejoin:miter;stroke-opacity:1" />
    </g>
  </g>
</svg>
