<?xml version="1.0" encoding="UTF-8" standalone="no"?>
<!-- Created with Inkscape (http://www.inkscape.org/) -->

<svg
   xmlns:dc="http://purl.org/dc/elements/1.1/"
   xmlns:cc="http://creativecommons.org/ns#"
   xmlns:rdf="http://www.w3.org/1999/02/22-rdf-syntax-ns#"
   xmlns:svg="http://www.w3.org/2000/svg"
   xmlns="http://www.w3.org/2000/svg"
   xmlns:xlink="http://www.w3.org/1999/xlink"
   xmlns:sodipodi="http://sodipodi.sourceforge.net/DTD/sodipodi-0.dtd"
   xmlns:inkscape="http://www.inkscape.org/namespaces/inkscape"
   width="32px"
   height="32px"
   id="svg6603"
   version="1.1"
   inkscape:version="0.48.4 r9939"
   sodipodi:docname="schraubenschluessel.svg">
  <defs
     id="defs6605">
    <linearGradient
       id="linearGradient7337">
      <stop
         style="stop-color:#000000;stop-opacity:0.48739496;"
         offset="0"
         id="stop7339" />
      <stop
         style="stop-color:#000000;stop-opacity:0;"
         offset="1"
         id="stop7341" />
    </linearGradient>
    <linearGradient
       inkscape:collect="always"
       xlink:href="#linearGradient7281-0"
       id="linearGradient7287-5"
       x1="73.930069"
       y1="59.195904"
       x2="73.581154"
       y2="13.982704"
       gradientUnits="userSpaceOnUse"
       gradientTransform="matrix(0.99837122,0,0,1.0415289,0.12013175,-2.4824512)" />
    <linearGradient
       inkscape:collect="always"
       id="linearGradient7281-0">
      <stop
         style="stop-color:#000000;stop-opacity:1;"
         offset="0"
         id="stop7283-8" />
      <stop
         style="stop-color:#000000;stop-opacity:0;"
         offset="1"
         id="stop7285-4" />
    </linearGradient>
    <linearGradient
       inkscape:collect="always"
       xlink:href="#linearGradient7337"
       id="linearGradient7343"
       x1="73.929787"
       y1="59.171795"
       x2="73.581436"
       y2="12.080939"
       gradientUnits="userSpaceOnUse"
       gradientTransform="matrix(0.56783575,0,0,1.0668927,-24.63909,36.755732)" />
    <linearGradient
       inkscape:collect="always"
       xlink:href="#linearGradient7281-0"
       id="linearGradient7677"
       gradientUnits="userSpaceOnUse"
       gradientTransform="translate(40.167979,-78.863923)"
       x1="72.401558"
       y1="77.901863"
       x2="117.99295"
       y2="77.901863" />
  </defs>
  <sodipodi:namedview
     id="base"
     pagecolor="#ffffff"
     bordercolor="#666666"
     borderopacity="1.0"
     inkscape:pageopacity="0.0"
     inkscape:pageshadow="2"
     inkscape:zoom="2.7994505"
     inkscape:cx="33.121801"
     inkscape:cy="-12.397528"
     inkscape:current-layer="layer1"
     showgrid="true"
     inkscape:grid-bbox="true"
     inkscape:document-units="px"
     inkscape:window-width="2560"
     inkscape:window-height="1365"
     inkscape:window-x="1680"
     inkscape:window-y="25"
     inkscape:window-maximized="1" />
  <metadata
     id="metadata6608">
    <rdf:RDF>
      <cc:Work
         rdf:about="">
        <dc:format>image/svg+xml</dc:format>
        <dc:type
           rdf:resource="http://purl.org/dc/dcmitype/StillImage" />
        <dc:title />
      </cc:Work>
    </rdf:RDF>
  </metadata>
  <g
     id="layer1"
     inkscape:label="Layer 1"
     inkscape:groupmode="layer">
    <path
       style="fill:none;stroke:#000000;stroke-width:1;stroke-linecap:butt;stroke-linejoin:bevel;stroke-miterlimit:4;stroke-opacity:1;stroke-dashoffset:0"
       d="m -10.828019,16.230738 c 3.4811168,2.009823 4.3795028,6.970907 2.6640115,9.942225 -1.7154913,2.971318 -8.9018635,6.546692 -9.9422245,2.664012 l -2.664011,-9.942225 c -0.330666,-1.234061 1.557583,-2.025215 2.664011,-2.664012"
       inkscape:connector-curvature="0"
       sodipodi:nodetypes="czssc"
       id="path7163" />
    <path
       style="fill:#808080;stroke:none"
       d="m 174.68004,120.54415 c -3.83005,-3.05303 -6.95934,-8.29089 -6.51844,-13.16898 0.68472,-7.575673 6.93557,-16.750237 13.62603,-18.304846 -9.02348,12.495886 -7.31325,11.352256 -7.10759,31.473826 z"
       id="path7170-6"
       inkscape:connector-curvature="0"
       sodipodi:nodetypes="cacc" />
    <path
       style="fill:url(#linearGradient7343);fill-opacity:1;stroke:none"
       d="m 15.084738,50.0075 0,47.524162 c 1.360994,3.121558 2.768002,4.381838 4.31449,0 l 0,-47.524162"
       id="path7173-9"
       inkscape:connector-curvature="0"
       sodipodi:nodetypes="cccc" />
    <path
       style="opacity:0.57142861;fill:url(#linearGradient7677);fill-opacity:1;stroke:none"
       d="m 127.19795,39.156609 c 5.23238,3.22074 10.64167,4.52106 16.58719,0 l 0.20258,-48.9999639 c 2.7603,-0.5085291 5.06334,-1.4598911 7.11789,-3.0947831 3.81348,-3.034542 6.94696,-8.182267 6.51938,-12.998327 -0.66134,-7.449011 -6.59086,-15.406653 -13.47254,-18.067627 l 0,18.067627 c 0,0 -6.38243,5.632551 -17.41659,0 l 0,-18.067627 c -6.69142,1.534463 -12.94318,10.590133 -13.62799,18.067627 -0.44097,4.814883 2.68878,9.984864 6.51938,12.998327 2.16011,1.699317 4.65339,2.650678 7.47283,3.1189431 z"
       id="path7173-4"
       inkscape:connector-curvature="0"
       sodipodi:nodetypes="cccsaccccascc" />
    <path
       style="fill:none;stroke:#000000;stroke-width:1px;stroke-linecap:butt;stroke-linejoin:miter;stroke-opacity:1"
       d="m 201.05981,-15.233901 1.51553,-10.356096"
       id="path7683"
       inkscape:connector-curvature="0" />
    <g
       id="g7834"
       transform="matrix(0.91032344,0,0,0.91379458,0.7903013,1.3614446)">
      <path
         sodipodi:nodetypes="cc"
         inkscape:connector-curvature="0"
         id="path7705-0-0"
         d="M 7.4998516,0.97192907 14.358882,7.8309591"
         style="fill:none;stroke:#434343;stroke-width:0.43783018px;stroke-linecap:butt;stroke-linejoin:miter;stroke-opacity:1" />
      <path
         sodipodi:nodetypes="cccsaccccascc"
         inkscape:connector-curvature="0"
         id="path7173-6"
         d="m 27.879974,32.369391 c 2.629885,-0.609466 4.712171,-1.876044 5.134535,-5.134535 L 17.708015,11.802949 C 18.402956,10.789 18.817457,9.7776971 18.940641,8.6289201 19.16929,6.4966581 18.524631,3.9120731 16.881681,2.5338371 14.340529,0.40211607 10.009079,-0.25838193 7.0442366,1.0371911 l 5.6670454,5.667046 c 0,0 -0.208977,3.7423589 -5.3912714,5.3912709 L 1.6529656,6.4284631 c -1.59002202,2.552613 -0.68486202,7.3282089 1.448526,9.8855639 1.373723,1.646723 3.964132,2.29952 6.095083,2.058958 1.2016614,-0.135653 2.2718544,-0.609043 3.2914814,-1.33492 z"
         style="fill:#4d4d4d;stroke:none" />
      <path
         sodipodi:nodetypes="cccsaccccascc"
         inkscape:connector-curvature="0"
         id="path7173"
         d="m 28.291276,31.586671 c 2.617027,-0.622791 4.69427,-1.894896 5.135274,-5.135275 L 18.319234,11.218653 C 19.016365,10.206648 19.434835,9.1991091 19.564759,8.0568821 19.805913,5.9367861 19.182317,3.3729851 17.558925,2.0143441 15.048019,-0.08706893 10.748654,-0.71495793 7.7943196,0.59173907 L 13.387925,6.1853441 c 0,0 -0.232157,3.719751 -5.3920504,5.3920499 L 2.4022696,5.9837891 c -1.59655702,2.546674 -0.728485,7.2857399 1.374478,9.8127319 1.354133,1.627171 3.923667,2.258814 6.042539,2.005834 1.1948514,-0.142658 2.2612884,-0.620026 3.2791374,-1.347933 z"
         style="fill:#b3b3b3;fill-opacity:1;stroke:#000000;stroke-width:0.43501535;stroke-linecap:butt;stroke-linejoin:miter;stroke-miterlimit:4;stroke-opacity:1;stroke-dasharray:none" />
      <path
         sodipodi:nodetypes="cc"
         inkscape:connector-curvature="0"
         id="path7679"
         d="M 17.93064,10.114028 C 19.985138,1.7726371 13.070184,0.57101707 9.8352216,1.0991871"
         style="fill:none;stroke:#f0f0f0;stroke-width:0.87566036;stroke-linecap:butt;stroke-linejoin:miter;stroke-miterlimit:4;stroke-opacity:1;stroke-dasharray:none" />
      <path
         sodipodi:nodetypes="cc"
         inkscape:connector-curvature="0"
         id="path7681"
         d="m 2.5590406,7.1205871 4.90135,4.9013499"
         style="fill:none;stroke:#ffffff;stroke-width:0.87566036;stroke-linecap:butt;stroke-linejoin:miter;stroke-miterlimit:4;stroke-opacity:1;stroke-dasharray:none" />
      <path
         sodipodi:nodetypes="cc"
         inkscape:connector-curvature="0"
         id="path7705"
         d="M 17.743308,11.758877 32.850926,26.866495"
         style="fill:none;stroke:#dadada;stroke-width:0.89243335;stroke-linecap:butt;stroke-linejoin:miter;stroke-miterlimit:4;stroke-opacity:1;stroke-dasharray:none" />
      <path
         sodipodi:nodetypes="cc"
         inkscape:connector-curvature="0"
         id="path7705-0"
         d="M 16.213555,13.752695 31.409467,28.948607"
         style="fill:none;stroke:#8a8a8a;stroke-width:0.44751868px;stroke-linecap:butt;stroke-linejoin:miter;stroke-opacity:1" />
    </g>
    <rect
       style="fill:#cecece;fill-opacity:1;fill-rule:nonzero;stroke:none"
       id="rect7786"
       width="3.5362279"
       height="49.128307"
       x="105.26778"
       y="25.480059"
       ry="0" />
    <path
       style="fill:none;stroke:#8e8e8e;stroke-width:1.02212846px;stroke-linecap:butt;stroke-linejoin:miter;stroke-opacity:1"
       d="m 117.52306,19.678043 0,49.083562"
       id="path7705-0-6"
       inkscape:connector-curvature="0"
       sodipodi:nodetypes="cc" />
  </g>
</svg>
