<?xml version="1.0" encoding="UTF-8" standalone="no"?>
<!-- Created with Inkscape (http://www.inkscape.org/) -->

<svg
   xmlns:dc="http://purl.org/dc/elements/1.1/"
   xmlns:cc="http://creativecommons.org/ns#"
   xmlns:rdf="http://www.w3.org/1999/02/22-rdf-syntax-ns#"
   xmlns:svg="http://www.w3.org/2000/svg"
   xmlns="http://www.w3.org/2000/svg"
   xmlns:sodipodi="http://sodipodi.sourceforge.net/DTD/sodipodi-0.dtd"
   xmlns:inkscape="http://www.inkscape.org/namespaces/inkscape"
   width="64"
   height="64"
   id="svg4086"
   version="1.1"
   inkscape:version="0.48.4 r9939"
   sodipodi:docname="broadcast.svg">
  <defs
     id="defs4088" />
  <sodipodi:namedview
     id="base"
     pagecolor="#ffffff"
     bordercolor="#666666"
     borderopacity="1.0"
     inkscape:pageopacity="0.0"
     inkscape:pageshadow="2"
     inkscape:zoom="3.959021"
     inkscape:cx="34.722341"
     inkscape:cy="41.11006"
     inkscape:current-layer="layer1"
     showgrid="true"
     inkscape:grid-bbox="true"
     inkscape:document-units="px"
     inkscape:window-width="1440"
     inkscape:window-height="825"
     inkscape:window-x="0"
     inkscape:window-y="25"
     inkscape:window-maximized="1" />
  <metadata
     id="metadata4091">
    <rdf:RDF>
      <cc:Work
         rdf:about="">
        <dc:format>image/svg+xml</dc:format>
        <dc:type
           rdf:resource="http://purl.org/dc/dcmitype/StillImage" />
      </cc:Work>
    </rdf:RDF>
  </metadata>
  <g
     id="layer1"
     inkscape:label="Layer 1"
     inkscape:groupmode="layer"
     transform="translate(0,32)">
    <g
       id="g3093"
       transform="translate(-1.3732519,2.4218863e-8)">
      <g
         transform="matrix(1.0628033,0,0,1,259.00517,-6.5146238)"
         id="g3071">
        <path
           sodipodi:type="arc"
           style="fill:#4d4d4d;fill-opacity:1;fill-rule:nonzero;stroke:none"
           id="path5126-9-3"
           sodipodi:cx="16.95495"
           sodipodi:cy="35.188919"
           sodipodi:rx="12.8504"
           sodipodi:ry="11.650608"
           d="m 29.80535,35.188919 c 0,6.434453 -5.75332,11.650608 -12.8504,11.650608 -7.0970796,0 -12.8503996,-5.216155 -12.8503996,-11.650608 0,0 0,0 0,0 l 12.8503996,0 z"
           sodipodi:start="0"
           sodipodi:end="3.1415927"
           transform="matrix(-0.9615682,0,0,-1.1066538,-195.29639,71.294596)" />
        <path
           sodipodi:type="arc"
           style="fill:#4d4d4d;fill-opacity:1;fill-rule:nonzero;stroke:none"
           id="path5126-9-8"
           sodipodi:cx="16.95495"
           sodipodi:cy="35.188919"
           sodipodi:rx="12.8504"
           sodipodi:ry="11.650608"
           d="m 29.80535,35.188919 c 0,6.434453 -5.75332,11.650608 -12.8504,11.650608 -7.0970796,0 -12.8503996,-5.216155 -12.8503996,-11.650608 0,0 0,0 0,0 l 12.8503996,0 z"
           sodipodi:start="0"
           sodipodi:end="3.1415927"
           transform="matrix(-0.66829093,0,0,-1.1066538,-188.75045,75.805845)" />
        <path
           sodipodi:type="arc"
           style="fill:#4d4d4d;fill-opacity:1;fill-rule:nonzero;stroke:none"
           id="path5126-9"
           sodipodi:cx="16.95495"
           sodipodi:cy="35.188919"
           sodipodi:rx="12.8504"
           sodipodi:ry="11.650608"
           d="m 29.80535,35.188919 c 0,6.434453 -5.75332,11.650608 -12.8504,11.650608 -7.0970796,0 -12.8503996,-5.216155 -12.8503996,-11.650608 0,0 0,0 0,0 l 12.8503996,0 z"
           sodipodi:start="0"
           sodipodi:end="3.1415927"
           transform="matrix(-0.9615682,0,0,-1.1066538,-205.74433,76.117929)" />
        <path
           sodipodi:type="arc"
           style="fill:#b3b3b3;fill-opacity:1;fill-rule:nonzero;stroke:none"
           id="path5126-9-3-7"
           sodipodi:cx="16.95495"
           sodipodi:cy="35.188919"
           sodipodi:rx="12.8504"
           sodipodi:ry="11.650608"
           d="m 29.80535,35.188919 c 0,6.434453 -5.75332,11.650608 -12.8504,11.650608 -7.0970796,0 -12.8503996,-5.216155 -12.8503996,-11.650608 0,0 0,0 0,0 l 12.8503996,0 z"
           sodipodi:start="0"
           sodipodi:end="3.1415927"
           transform="matrix(-0.91070421,0,0,-1.0481153,-196.11675,69.72647)" />
        <path
           sodipodi:type="arc"
           style="fill:#b3b3b3;fill-opacity:1;fill-rule:nonzero;stroke:none"
           id="path5126-9-8-8"
           sodipodi:cx="16.95495"
           sodipodi:cy="35.188919"
           sodipodi:rx="12.8504"
           sodipodi:ry="11.650608"
           d="m 29.80535,35.188919 c 0,6.434453 -5.75332,11.650608 -12.8504,11.650608 -7.0970796,0 -12.8503996,-5.216155 -12.8503996,-11.650608 0,0 0,0 0,0 l 12.8503996,0 z"
           sodipodi:start="0"
           sodipodi:end="3.1415927"
           transform="matrix(-0.63294042,0,0,-1.0481153,-189.7102,73.982581)" />
        <path
           sodipodi:type="arc"
           style="fill:#b3b3b3;fill-opacity:1;fill-rule:nonzero;stroke:none"
           id="path5126-9-5"
           sodipodi:cx="16.95495"
           sodipodi:cy="35.188919"
           sodipodi:rx="12.8504"
           sodipodi:ry="11.650608"
           d="m 29.80535,35.188919 c 0,6.434453 -5.75332,11.650608 -12.8504,11.650608 -7.0970796,0 -12.8503996,-5.216155 -12.8503996,-11.650608 0,0 0,0 0,0 l 12.8503996,0 z"
           sodipodi:start="0"
           sodipodi:end="3.1415927"
           transform="matrix(-0.91070421,0,0,-1.0481153,-206.01202,74.294661)" />
        <g
           id="g4977"
           transform="matrix(2.3022234,0,0,2.4710731,-248.14246,-33.939649)">
          <path
             transform="matrix(0.17478651,0,0,1.5325921,14.044701,5.210844)"
             inkscape:transform-center-y="-4.3005223"
             d="m 21.844633,15.700104 -19.4408454,0 9.7204224,-16.8362658 z"
             inkscape:randomized="0"
             inkscape:rounded="0"
             inkscape:flatsided="true"
             sodipodi:arg2="1.5707963"
             sodipodi:arg1="0.52359878"
             sodipodi:r2="5.6120887"
             sodipodi:r1="11.224177"
             sodipodi:cy="10.088016"
             sodipodi:cx="12.12421"
             sodipodi:sides="3"
             id="path4864-8"
             style="fill:#393939;fill-opacity:1;fill-rule:nonzero;stroke:none"
             sodipodi:type="star" />
          <path
             transform="matrix(0.12949381,0,0,1.4425766,14.593839,6.1820685)"
             inkscape:transform-center-y="-4.0479339"
             d="m 21.844633,15.700104 -19.4408454,0 9.7204224,-16.8362658 z"
             inkscape:randomized="0"
             inkscape:rounded="0"
             inkscape:flatsided="true"
             sodipodi:arg2="1.5707963"
             sodipodi:arg1="0.52359878"
             sodipodi:r2="5.6120887"
             sodipodi:r1="11.224177"
             sodipodi:cy="10.088016"
             sodipodi:cx="12.12421"
             sodipodi:sides="3"
             id="path4864"
             style="fill:#ffffff;fill-opacity:1;fill-rule:nonzero;stroke:none"
             sodipodi:type="star" />
        </g>
        <g
           id="g5480"
           transform="matrix(0.30278527,0,0,0.32499216,-240.74924,28.614091)">
          <g
             transform="matrix(6.3876899,0,0,6.3876899,-5.8512834,-175.26952)"
             id="g4952">
            <path
               sodipodi:type="arc"
               style="fill:#f3841a;fill-opacity:1;fill-rule:nonzero;stroke:none"
               id="path4866"
               sodipodi:cx="11.903195"
               sodipodi:cy="14.539875"
               sodipodi:rx="3.5046544"
               sodipodi:ry="3.5046544"
               d="m 15.40785,14.539875 c 0,1.935567 -1.569087,3.504654 -3.504655,3.504654 -1.9355668,0 -3.504654,-1.569087 -3.504654,-3.504654 0,-1.935567 1.5690872,-3.504654 3.504654,-3.504654 1.935568,0 3.504655,1.569087 3.504655,3.504654 z"
               transform="matrix(1.1891892,0,0,1.1891892,2.2630492,-7.5183802)" />
            <path
               sodipodi:type="arc"
               style="fill:#f6a04d;fill-opacity:1;fill-rule:nonzero;stroke:none"
               id="path4866-4"
               sodipodi:cx="11.903195"
               sodipodi:cy="14.539875"
               sodipodi:rx="3.5046544"
               sodipodi:ry="3.5046544"
               d="m 15.40785,14.539875 c 0,1.935567 -1.569087,3.504654 -3.504655,3.504654 -1.9355668,0 -3.504654,-1.569087 -3.504654,-3.504654 0,-1.935567 1.5690872,-3.504654 3.504654,-3.504654 1.935568,0 3.504655,1.569087 3.504655,3.504654 z"
               transform="matrix(0.95349404,0,0,0.95349404,4.7306525,-4.3542301)" />
            <path
               sodipodi:type="arc"
               style="fill:#f9c38e;fill-opacity:1;fill-rule:nonzero;stroke:none"
               id="path4866-4-5"
               sodipodi:cx="11.903195"
               sodipodi:cy="14.539875"
               sodipodi:rx="3.5046544"
               sodipodi:ry="3.5046544"
               d="m 15.40785,14.539875 c 0,1.935567 -1.569087,3.504654 -3.504655,3.504654 -1.9355668,0 -3.504654,-1.569087 -3.504654,-3.504654 0,-1.935567 1.5690872,-3.504654 3.504654,-3.504654 1.935568,0 3.504655,1.569087 3.504655,3.504654 z"
               transform="matrix(0.66423181,0,0,0.66423181,7.6856889,-0.56140822)" />
            <path
               sodipodi:type="arc"
               style="fill:#fce0c5;fill-opacity:1;fill-rule:nonzero;stroke:none"
               id="path4866-4-5-0"
               sodipodi:cx="11.903195"
               sodipodi:cy="14.539875"
               sodipodi:rx="3.5046544"
               sodipodi:ry="3.5046544"
               d="m 15.40785,14.539875 c 0,1.935567 -1.569087,3.504654 -3.504655,3.504654 -1.9355668,0 -3.504654,-1.569087 -3.504654,-3.504654 0,-1.935567 1.5690872,-3.504654 3.504654,-3.504654 1.935568,0 3.504655,1.569087 3.504655,3.504654 z"
               transform="matrix(0.43925007,0,0,0.43925007,9.988222,2.33433)" />
            <path
               sodipodi:type="arc"
               style="fill:#ffffff;fill-opacity:1;fill-rule:nonzero;stroke:none"
               id="path4866-4-5-0-3"
               sodipodi:cx="11.903195"
               sodipodi:cy="14.539875"
               sodipodi:rx="3.5046544"
               sodipodi:ry="3.5046544"
               d="m 15.40785,14.539875 c 0,1.935567 -1.569087,3.504654 -3.504655,3.504654 -1.9355668,0 -3.504654,-1.569087 -3.504654,-3.504654 0,-1.935567 1.5690872,-3.504654 3.504654,-3.504654 1.935568,0 3.504655,1.569087 3.504655,3.504654 z"
               transform="matrix(0.28926223,0,0,0.28926223,11.585823,4.3274001)" />
          </g>
          <path
             transform="matrix(4.5167788,-4.5167788,4.5167788,4.5167788,3.9513753,-138.73232)"
             sodipodi:open="true"
             sodipodi:end="1.5707963"
             sodipodi:start="0"
             d="m 14.239632,14.36622 c 0,3.095164 -2.509126,5.60429 -5.6042893,5.60429"
             sodipodi:ry="5.6042895"
             sodipodi:rx="5.6042895"
             sodipodi:cy="14.36622"
             sodipodi:cx="8.6353426"
             id="path5357"
             style="fill:none;stroke:#afafaf;stroke-width:1;stroke-linecap:square;stroke-linejoin:miter;stroke-miterlimit:4;stroke-opacity:1;stroke-dasharray:none;stroke-dashoffset:0"
             sodipodi:type="arc" />
          <path
             transform="matrix(4.3358752,-5.7928375,4.3358752,5.7928375,29.662749,-146.04525)"
             sodipodi:open="true"
             sodipodi:end="1.5707963"
             sodipodi:start="0"
             d="m 14.239632,14.36622 c 0,3.095164 -2.509126,5.60429 -5.6042893,5.60429"
             sodipodi:ry="5.6042895"
             sodipodi:rx="5.6042895"
             sodipodi:cy="14.36622"
             sodipodi:cx="8.6353426"
             id="path5357-1"
             style="fill:none;stroke:#afafaf;stroke-width:0.90124893;stroke-linecap:square;stroke-linejoin:miter;stroke-miterlimit:4;stroke-opacity:1;stroke-dasharray:none;stroke-dashoffset:0"
             sodipodi:type="arc" />
          <path
             transform="matrix(-4.5167788,-4.5167788,-4.5167788,4.5167788,194.28563,-138.73232)"
             sodipodi:open="true"
             sodipodi:end="1.5707963"
             sodipodi:start="0"
             d="m 14.239632,14.36622 c 0,3.095164 -2.509126,5.60429 -5.6042893,5.60429"
             sodipodi:ry="5.6042895"
             sodipodi:rx="5.6042895"
             sodipodi:cy="14.36622"
             sodipodi:cx="8.6353426"
             id="path5357-3"
             style="fill:none;stroke:#afafaf;stroke-width:1;stroke-linecap:square;stroke-linejoin:miter;stroke-miterlimit:4;stroke-opacity:1;stroke-dasharray:none;stroke-dashoffset:0"
             sodipodi:type="arc" />
          <path
             transform="matrix(-4.3358752,-5.7928375,-4.3358752,5.7928375,168.85951,-146.04525)"
             sodipodi:open="true"
             sodipodi:end="1.5707963"
             sodipodi:start="0"
             d="m 14.239632,14.36622 c 0,3.095164 -2.509126,5.60429 -5.6042893,5.60429"
             sodipodi:ry="5.6042895"
             sodipodi:rx="5.6042895"
             sodipodi:cy="14.36622"
             sodipodi:cx="8.6353426"
             id="path5357-1-9"
             style="fill:none;stroke:#afafaf;stroke-width:0.90124893;stroke-linecap:square;stroke-linejoin:miter;stroke-miterlimit:4;stroke-opacity:1;stroke-dasharray:none;stroke-dashoffset:0"
             sodipodi:type="arc" />
        </g>
      </g>
    </g>
  </g>
</svg>
