<?xml version="1.0" encoding="UTF-8" standalone="no"?>
<!-- Created with Inkscape (http://www.inkscape.org/) -->

<svg
   xmlns:dc="http://purl.org/dc/elements/1.1/"
   xmlns:cc="http://creativecommons.org/ns#"
   xmlns:rdf="http://www.w3.org/1999/02/22-rdf-syntax-ns#"
   xmlns:svg="http://www.w3.org/2000/svg"
   xmlns="http://www.w3.org/2000/svg"
   xmlns:sodipodi="http://sodipodi.sourceforge.net/DTD/sodipodi-0.dtd"
   xmlns:inkscape="http://www.inkscape.org/namespaces/inkscape"
   version="1.1"
   width="64"
   height="64"
   id="svg4110"
   inkscape:version="0.48.4 r9939"
   sodipodi:docname="gapless.svg">
  <sodipodi:namedview
     pagecolor="#ffffff"
     bordercolor="#666666"
     borderopacity="1"
     objecttolerance="10"
     gridtolerance="10"
     guidetolerance="10"
     inkscape:pageopacity="0"
     inkscape:pageshadow="2"
     inkscape:window-width="1920"
     inkscape:window-height="1030"
     id="namedview24"
     showgrid="false"
     inkscape:zoom="3.6875"
     inkscape:cx="-50.440678"
     inkscape:cy="32"
     inkscape:window-x="1440"
     inkscape:window-y="0"
     inkscape:window-maximized="1"
     inkscape:current-layer="svg4110" />
  <defs
     id="defs4112" />
  <metadata
     id="metadata4115">
    <rdf:RDF>
      <cc:Work
         rdf:about="">
        <dc:format>image/svg+xml</dc:format>
        <dc:type
           rdf:resource="http://purl.org/dc/dcmitype/StillImage" />
        <dc:title />
      </cc:Work>
    </rdf:RDF>
  </metadata>
  <g
     id="layer1">
    <g
       transform="matrix(0.49997845,0,0,0.50044408,78.795596,19.788154)"
       id="g5046">
      <rect
         width="121.48441"
         height="121.38044"
         ry="31.023035"
         x="-154.33743"
         y="-36.2882"
         id="rect4593-9-1-1-3-7"
         style="fill:#323232;fill-opacity:1;fill-rule:nonzero;stroke:#282828;stroke-width:6.5135541;stroke-linecap:round;stroke-linejoin:round;stroke-miterlimit:4;stroke-opacity:1;stroke-dasharray:none;stroke-dashoffset:10" />
      <path
         d="m 1375,1732.0497 a 146.875,146.875 0 1 1 -293.75,0 146.875,146.875 0 1 1 293.75,0 z"
         transform="matrix(0.27167404,0,0,0.12369106,-427.70364,-188.50906)"
         id="path5824-2"
         style="fill:#ffffff;fill-opacity:1;fill-rule:nonzero;stroke:none" />
      <path
         d="m -137.10215,26.878598 c 0,-25.6768096 0.0786,-46.62289 0.17461,-46.54645 0.58704,0.46682 40.418964,46.42234 40.422344,46.63681 0,0.27632 -40.212214,46.595015 -40.456654,46.595015 -0.0772,0 -0.13969,-21.008315 -0.13969,-46.685375 z"
         id="path3999-7-8-7-9-9-4"
         style="fill:#f3841a;fill-opacity:1;fill-rule:nonzero;stroke:#333331;stroke-width:7.43980742;stroke-linecap:butt;stroke-linejoin:round;stroke-miterlimit:4;stroke-opacity:1;stroke-dasharray:none;stroke-dashoffset:10" />
      <path
         d="m -49.347438,26.603248 c 0,-26.16291964 -0.0748,-47.50527 -0.16517,-47.42759 -0.55525,0.47583 -38.233608,47.30083 -38.236768,47.51943 0,0.28167 38.037978,47.476905 38.269248,47.476905 0.0725,0 0.13211,-21.405845 0.13211,-47.568745 z"
         id="path3999-7-8-7-9-9-4-3"
         style="fill:#f3841a;fill-opacity:1;fill-rule:nonzero;stroke:#2d3032;stroke-width:7.30403996;stroke-linecap:butt;stroke-linejoin:round;stroke-miterlimit:4;stroke-opacity:1;stroke-dasharray:none;stroke-dashoffset:10" />
    </g>
  </g>
</svg>
